<svg width="115px" height="115px" viewBox="-6.4 -6.4 28.80 28.80" fill="none" xmlns="http://www.w3.org/2000/svg" stroke="#39FF14" stroke-width="0.16">
  <g id="SVGRepo_bgCarrier" stroke-width="0" transform="translate(1.2000000000000002,1.2000000000000002), scale(0.85)">
    <path transform="translate(-6.4, -6.4), scale(1.8)" fill="#0A3D62" d="M9.166.33a2.25 2.25 0 00-2.332 0l-5.25 3.182A2.25 2.25 0 00.5 5.436v5.128a2.25 2.25 0 001.084 1.924l5.25 3.182a2.25 2.25 0 002.332 0l5.25-3.182a2.25 2.25 0 001.084-1.924V5.436a2.25 2.25 0 00-1.084-1.924L9.166.33z" strokewidth="0"></path>
  </g>
  <g id="SVGRepo_tracerCarrier" stroke-linecap="round" stroke-linejoin="round"></g>
  <g id="SVGRepo_iconCarrier">
    <path d="M8.01005 0.858582L6.01005 14.8586L7.98995 15.1414L9.98995 1.14142L8.01005 0.858582Z" fill="#39FF14"></path>
    <path d="M12.5 11.5L11.0858 10.0858L13.1716 8L11.0858 5.91422L12.5 4.5L16 8L12.5 11.5Z" fill="#39FF14"></path>
    <path d="M2.82843 8L4.91421 10.0858L3.5 11.5L0 8L3.5 4.5L4.91421 5.91422L2.82843 8Z" fill="#39FF14"></path>
  </g>
</svg>